<svg width="71" height="43" viewBox="0 0 71 43" fill="none" xmlns="http://www.w3.org/2000/svg">
<path d="M12.696 38.352C10.2613 38.352 8.09067 37.736 6.184 36.504C4.30667 35.2427 2.82533 33.424 1.74 31.048C0.654667 28.672 0.112 25.856 0.112 22.6C0.112 19.344 0.654667 16.528 1.74 14.152C2.82533 11.776 4.30667 9.972 6.184 8.74C8.09067 7.47867 10.2613 6.848 12.696 6.848C15.1013 6.848 17.2427 7.47867 19.12 8.74C21.0267 9.972 22.5227 11.776 23.608 14.152C24.6933 16.528 25.236 19.344 25.236 22.6C25.236 25.856 24.6933 28.672 23.608 31.048C22.5227 33.424 21.0267 35.2427 19.12 36.504C17.2427 37.736 15.1013 38.352 12.696 38.352ZM12.696 34.436C15.16 34.436 17.1253 33.424 18.592 31.4C20.088 29.376 20.836 26.4427 20.836 22.6C20.836 18.7573 20.088 15.824 18.592 13.8C17.1253 11.776 15.16 10.764 12.696 10.764C10.2027 10.764 8.208 11.776 6.712 13.8C5.24533 15.824 4.512 18.7573 4.512 22.6C4.512 26.4427 5.24533 29.376 6.712 31.4C8.208 33.424 10.2027 34.436 12.696 34.436ZM50.9788 34.172V38H28.8468V35.008L41.3868 22.908C42.9121 21.4413 43.9388 20.18 44.4668 19.124C44.9948 18.0387 45.2588 16.9533 45.2588 15.868C45.2588 14.2547 44.6868 13.008 43.5428 12.128C42.4281 11.2187 40.8148 10.764 38.7028 10.764C35.3001 10.764 32.6748 11.8787 30.8268 14.108L27.8348 11.512C29.0374 10.0453 30.6068 8.90133 32.5428 8.08C34.5081 7.25867 36.6934 6.848 39.0988 6.848C42.3254 6.848 44.8921 7.62533 46.7988 9.18C48.7054 10.7053 49.6588 12.788 49.6588 15.428C49.6588 17.0707 49.3068 18.6253 48.6028 20.092C47.8988 21.5587 46.5641 23.2307 44.5988 25.108L35.1828 34.172H50.9788ZM66.2021 0.951997H70.0301L55.5101 42.4H51.6821L66.2021 0.951997Z" fill="white"/>
</svg>
