<svg width="16" height="14" viewBox="0 0 16 14" fill="none" xmlns="http://www.w3.org/2000/svg">
<path d="M14.5325 0.740881C14.5325 0.740881 15.9894 0.172756 15.8675 1.55238C15.8274 2.12051 15.4632 4.10913 15.1797 6.25976L14.2085 12.631C14.2085 12.631 14.1275 13.5644 13.3989 13.7268C12.6706 13.8888 11.5779 13.1586 11.3754 12.9963C11.2134 12.8744 8.34012 11.0481 7.32837 10.1556C7.04487 9.91188 6.72087 9.42513 7.36887 8.85701L11.618 4.79876C12.1036 4.31201 12.5892 3.17576 10.5657 4.55538L4.8995 8.41038C4.8995 8.41038 4.25187 8.81651 3.038 8.45126L0.406997 7.63938C0.406997 7.63938 -0.564253 7.03076 1.09512 6.42213C5.1425 4.51488 10.1206 2.56713 14.5317 0.740881H14.5325Z" fill="white"/>
</svg>
